# xmcd
#
# Track frame offsets:
#	150
#	16309
#	34595
#	54859
#	71166
#	91217
#	105609
#	121834
#	140153
#	160434
#	176698
#	196785
#
# Disc length: 2815 seconds
#
# Revision: 1
# Processed by: cddbd v1.5.1PL2 Copyright (c) Steve Scherf et al.
# Submitted via: audiograbber 1.83.01
#
DISCID=9d0afd0c
DTITLE=Various Artist - CB2178
DYEAR=1900
DGENRE=Karaoke
TTITLE0=Chad Brock - Vocal
TTITLE1=Steve Wariner - Vocal
TTITLE2=Judds, The - Vocal
TTITLE3=Damon Gray - Vocal
TTITLE4=Trisha Yearwood - Vocal
TTITLE5=Chris Ledoux - Vocal
TTITLE6=Chad Brock - Yes!
TTITLE7=Steve Wariner - Faith In You
TTITLE8=Judds, The - Stuck In Love
TTITLE9=Damon Gray - Lookin' For Trouble
TTITLE10=Trisha Yearwood - You're Where I Belong
TTITLE11=Chris Ledoux - County Fair
EXTD=
EXTT0=
EXTT1=
EXTT2=
EXTT3=
EXTT4=
EXTT5=
EXTT6=
EXTT7=
EXTT8=
EXTT9=
EXTT10=
EXTT11=
PLAYORDER=
